<svg xmlns:dc="http://purl.org/dc/elements/1.1/" xmlns:cc="http://creativecommons.org/ns#" xmlns:rdf="http://www.w3.org/1999/02/22-rdf-syntax-ns#" xmlns:svg="http://www.w3.org/2000/svg" xmlns="http://www.w3.org/2000/svg" height="533.33331" width="733.33331" xml:space="preserve" version="1.1"><rect id="backgroundrect" width="100%" height="100%" x="0" y="0" fill="none" stroke="none"/><metadata id="metadata8"><rdf:RDF><cc:Work rdf:about=""><dc:format>image/svg+xml</dc:format><dc:type rdf:resource="http://purl.org/dc/dcmitype/StillImage"/></cc:Work></rdf:RDF></metadata><defs id="defs6"><clipPath id="clipPath18" clipPathUnits="userSpaceOnUse"><path id="path16" d="M 0,400 H 550 V 0 H 0 Z"/></clipPath></defs><g class="currentLayer"><title>Layer 1</title><g id="g10" class="selected" fill="#000000" fill-opacity="1"><g id="g12" stroke-width="0" fill="#000000" fill-opacity="1"><g clip-path="url(#clipPath18)" id="g14" stroke-width="0" fill="#000000" fill-opacity="1"><g id="g20" stroke-width="0" fill="#000000" fill-opacity="1"><path id="path22" style="fill-rule: evenodd; stroke: none;" d="m461.5338426283203,204.2669319766602 c18.310666208900003,21.19999947 27.466665980000002,46.133332180000004 27.466665980000002,74.79999813 v0.13333333 c0,31.8213325378 -11.2013330533,58.95466519280001 -33.6013324933,81.399997965 c-19.865332836700002,19.733332840000003 -43.243998918900004,30.799999230000005 -70.1319982467,33.1986658367 v0.46799998830000006 h-128.066663465 c16.889332911100002,-1.1999999700000001 32.26666586,-4.1559998961 46.133332180000004,-8.866666445000002 c5.0653332067,-1.9559999511000001 9.7319997567,-3.9559999011 13.999999650000001,-5.99999985 c41.0213323078,-19.955999501100003 60.7773318139,-58.866665195 59.26666518500001,-116.733330415 c-70.35599824110001,5.3333332 -109.66666392500001,41.3106656339 -117.933330385,107.933330635 l-0.8666666450000002,8.79999978 c-0.26666666,2.7546665978 -0.46666665500000004,5.533333195000001 -0.5999999850000001,8.333333125000001 V164.06693298166022 h128.066663465 v0.53333332 C412.1551771961203,166.9562662427602 435.5338432783203,178.0002659666602 455.39917611502034,197.7335988066602 z" stroke-width="0" fill="#000000" fill-opacity="1"/></g></g></g></g></g></svg>