<?xml version="1.0" encoding="UTF-8" standalone="no"?>
<!-- Generator: Adobe Illustrator 16.0.0, SVG Export Plug-In . SVG Version: 6.00 Build 0)  -->

<svg
   xmlns:dc="http://purl.org/dc/elements/1.1/"
   xmlns:cc="http://creativecommons.org/ns#"
   xmlns:rdf="http://www.w3.org/1999/02/22-rdf-syntax-ns#"
   xmlns:svg="http://www.w3.org/2000/svg"
   xmlns="http://www.w3.org/2000/svg"
   xmlns:sodipodi="http://sodipodi.sourceforge.net/DTD/sodipodi-0.dtd"
   xmlns:inkscape="http://www.inkscape.org/namespaces/inkscape"
   version="1.1"
   id="Livello_1"
   x="0px"
   y="0px"
   width="300px"
   height="295px"
   viewBox="0 0 300 295"
   enable-background="new 0 0 300 295"
   xml:space="preserve"
   inkscape:version="0.91 r13725"
   sodipodi:docname="icon-ps.svg"><metadata
     id="metadata3430"><rdf:RDF><cc:Work
         rdf:about=""><dc:format>image/svg+xml</dc:format><dc:type
           rdf:resource="http://purl.org/dc/dcmitype/StillImage" /></cc:Work></rdf:RDF></metadata><defs
     id="defs3428"><linearGradient
       y2="227.5943"
       x2="187.90559"
       y1="-15.4063"
       x1="72.905296"
       gradientUnits="userSpaceOnUse"
       id="SVGID_1_"><stop
         id="stop3373"
         style="stop-color:#A0CBFF"
         offset="0" /><stop
         id="stop3375"
         style="stop-color:#A0CBFE"
         offset="0.3941" /><stop
         id="stop3377"
         style="stop-color:#8EC2FC"
         offset="0.583" /><stop
         id="stop3379"
         style="stop-color:#83BCFB"
         offset="0.7838" /><stop
         id="stop3381"
         style="stop-color:#7FBAFB"
         offset="1" /></linearGradient><linearGradient
       y2="242.95531"
       x2="178.7258"
       y1="26.954599"
       x1="113.7256"
       gradientUnits="userSpaceOnUse"
       id="SVGID_2_"><stop
         id="stop3389"
         style="stop-color:#090058"
         offset="0" /><stop
         id="stop3391"
         style="stop-color:#070033"
         offset="1" /></linearGradient><linearGradient
       y2="240.522"
       x2="152.1362"
       y1="-2.4779999"
       x1="37.1362"
       gradientUnits="userSpaceOnUse"
       id="SVGID_3_"><stop
         id="stop3399"
         style="stop-color:#A0CBFF"
         offset="0" /><stop
         id="stop3401"
         style="stop-color:#A0CBFE"
         offset="0.3941" /><stop
         id="stop3403"
         style="stop-color:#8EC2FC"
         offset="0.583" /><stop
         id="stop3405"
         style="stop-color:#83BCFB"
         offset="0.7838" /><stop
         id="stop3407"
         style="stop-color:#7FBAFB"
         offset="1" /></linearGradient><linearGradient
       id="SVGID_4_"
       gradientUnits="userSpaceOnUse"
       x1="102.6431"
       y1="-34.2061"
       x2="218.0972"
       y2="209.7536"><stop
         offset="0"
         style="stop-color:#A0CBFF"
         id="stop3414" /><stop
         offset="0.3941"
         style="stop-color:#A0CBFE"
         id="stop3416" /><stop
         offset="0.583"
         style="stop-color:#8EC2FC"
         id="stop3418" /><stop
         offset="0.7838"
         style="stop-color:#83BCFB"
         id="stop3420" /><stop
         offset="1"
         style="stop-color:#7FBAFB"
         id="stop3422" /></linearGradient></defs><sodipodi:namedview
     pagecolor="#ffffff"
     bordercolor="#666666"
     borderopacity="1"
     objecttolerance="10"
     gridtolerance="10"
     guidetolerance="10"
     inkscape:pageopacity="0"
     inkscape:pageshadow="2"
     inkscape:window-width="1920"
     inkscape:window-height="1017"
     id="namedview3426"
     showgrid="false"
     inkscape:zoom="1.1313708"
     inkscape:cx="354.47958"
     inkscape:cy="63.381547"
     inkscape:window-x="-8"
     inkscape:window-y="-8"
     inkscape:window-maximized="1"
     inkscape:current-layer="Livello_1" /><path
     style="fill:white;stroke:none"
     d="M 23.859375 23.458984 L 23.859375 271.54102 L 276.14258 271.54102 L 276.14258 23.458984 L 23.859375 23.458984 z M 107.08008 82.644531 C 122.85808 82.644531 134.10716 86.357859 141.66016 92.880859 C 148.87916 99.044859 153.74805 109.55167 153.74805 121.51367 C 153.74805 133.47567 150.05389 143.26348 143.33789 150.14648 C 134.60889 159.02748 124.43708 164.28372 107.08008 165.01172 C 102.28508 165.21272 97.847656 165.26172 97.847656 165.26172 L 97.847656 204.14453 L 72.496094 204.14453 L 72.498047 83.144531 C 72.498047 83.144531 91.466076 82.644531 107.08008 82.644531 z M 104.57617 101.85352 C 100.86944 101.8268 97.845703 101.93359 97.845703 101.93359 L 97.845703 143.7168 C 100.5997 143.9848 102.3262 143.85564 106.4082 143.80664 C 120.0062 143.64364 128.39648 135.37414 128.39648 122.86914 C 128.39648 111.63514 121.47783 102.41159 108.42383 101.93359 C 107.12308 101.88609 105.81175 101.86242 104.57617 101.85352 z M 198.47656 110.28711 C 208.88356 110.28711 217.19497 113.68903 222.66797 116.45703 L 222.66797 136.84961 C 218.64897 134.63161 207.05662 129.67969 199.39062 129.67969 C 192.63262 129.67969 188.80078 132.4495 188.80078 137.0625 C 188.80078 141.3105 192.27161 143.52625 203.22461 147.40625 C 220.20061 153.31425 227.32095 161.99016 227.50195 175.28516 C 227.50195 192.09016 214.54778 205.45358 188.80078 204.64258 C 179.96578 204.36458 170.17687 200.87259 163.42188 197.18359 L 163.42188 177.05469 C 168.53088 180.18969 180.58669 184.88477 188.80469 184.88477 C 197.20069 184.88477 200.66797 181.9255 200.66797 177.3125 C 200.66797 172.6935 197.93044 167.84198 187.52344 164.33398 C 169.08444 158.05498 161.96444 150.53953 162.14844 140.01953 C 162.14844 123.02853 176.38656 110.28711 198.47656 110.28711 z "
     id="rect3393" /></svg>