<?xml version="1.0" encoding="UTF-8"?>
<svg width="376px" height="376px" viewBox="0 0 376 376" version="1.1" xmlns="http://www.w3.org/2000/svg" xmlns:xlink="http://www.w3.org/1999/xlink">
    <!-- Generator: Sketch 41.2 (35397) - http://www.bohemiancoding.com/sketch -->
    <title>noun_597285_cc</title>
    <desc>Created with Sketch.</desc>
    <defs></defs>
    <g id="Page-1" stroke="none" stroke-width="1" fill="white" fill-rule="evenodd">
        <g id="Artboard" transform="translate(-1541.000000, -2167.000000)" fill="white">
            <g id="noun_597285_cc" transform="translate(1541.000000, 2167.000000)">
                <g id="Group">
                    <path d="M370.731757,326.769706 C370.731757,331.14331 367.138614,334.730882 362.756703,334.730882 L136.605638,334.730882 C132.231393,334.730882 128.649088,331.14635 128.649088,326.769706 C128.649088,322.381969 132.23785,318.7854 136.605638,318.7854 L362.761329,318.7854 C367.045967,318.7854 370.58664,322.237151 370.731757,326.480377 L370.731757,326.769706 Z M362.761329,314.159499 L136.605638,314.159499 C129.680782,314.159499 124.023186,319.829401 124.023186,326.751202 C124.023186,333.700522 129.675935,339.356784 136.605638,339.356784 L362.756703,339.356784 C369.69028,339.356784 375.355136,333.70225 375.357657,326.774333 C375.362284,319.830195 369.691588,314.159499 362.761329,314.159499 Z" id="Shape"></path>
                    <path d="M350.174251,306.202949 C350.174251,310.568584 346.579826,314.164125 342.208449,314.164125 L157.172395,314.164125 C152.802215,314.164125 149.211219,310.569783 149.211219,306.202949 L149.211219,193.108912 C149.211219,188.733468 152.796951,185.147736 157.172395,185.147736 L342.208449,185.147736 C346.585092,185.147736 350.174251,188.734667 350.174251,193.108912 L350.174251,306.202949 Z M354.800153,306.202949 L354.800153,193.108912 C354.800153,186.179209 349.139264,180.521835 342.208449,180.521835 L157.172395,180.521835 C150.242136,180.521835 144.585318,186.178654 144.585318,193.108912 L144.585318,306.202949 C144.585318,313.123634 150.246436,318.790026 157.172395,318.790026 L342.208449,318.790026 C349.134962,318.790026 354.800153,313.123077 354.800153,306.202949 Z" id="Shape"></path>
                    <path d="M164.629348,200.570491 L334.756122,200.570491 L334.756122,298.750622 L164.629348,298.750622 L164.629348,200.570491 Z M339.382024,195.94459 L160.003447,195.94459 L160.003447,303.376523 L339.382024,303.376523 L339.382024,195.94459 Z" id="Rectangle-path"></path>
                    <path d="M103.456429,362.749967 C103.456429,367.128837 99.871897,370.711143 95.4906268,370.711143 L54.3709897,370.711143 C49.9827806,370.711143 46.4005617,367.131148 46.4005617,362.749967 L46.4005617,280.510693 C46.4005617,276.12831 49.9839809,272.54489 54.3709897,272.54489 L95.4906268,272.54489 C99.8706967,272.54489 103.456429,276.130623 103.456429,280.510693 L103.456429,362.749967 Z M108.08233,362.749967 L108.08233,280.510693 C108.08233,273.575808 102.425511,267.918989 95.4906268,267.918989 L54.3709897,267.918989 C47.4291661,267.918989 41.7746603,273.573495 41.7746603,280.510693 L41.7746603,362.749967 C41.7746603,369.686606 47.4286088,375.337044 54.3709897,375.337044 L95.4906268,375.337044 C102.426069,375.337044 108.08233,369.684295 108.08233,362.749967 Z" id="Shape"></path>
                    <path d="M108.08233,293.116274 L108.08233,280.510693 C108.08233,273.575808 102.425511,267.918989 95.4906268,267.918989 L54.3709897,267.918989 C47.4291661,267.918989 41.7746603,273.573495 41.7746603,280.510693 L41.7746603,293.116274 L108.08233,293.116274 Z M46.4005617,288.490372 L46.4005617,280.510693 C46.4005617,276.12831 49.9839809,272.54489 54.3709897,272.54489 L95.4906268,272.54489 C99.8706967,272.54489 103.456429,276.130623 103.456429,280.510693 L103.456429,288.490372 L46.4005617,288.490372 Z" id="Shape"></path>
                    <path d="M41.7792862,350.149011 L41.7792862,362.754593 C41.7792862,369.691232 47.4332347,375.34167 54.3756156,375.34167 L95.4906268,375.34167 C102.426069,375.34167 108.08233,369.688921 108.08233,362.754593 L108.08233,350.149011 L41.7792862,350.149011 Z M103.456429,354.774913 L103.456429,362.754593 C103.456429,367.133463 99.871897,370.715769 95.4906268,370.715769 L54.3756156,370.715769 C49.9874065,370.715769 46.4051876,367.135774 46.4051876,362.754593 L46.4051876,354.774913 L103.456429,354.774913 Z" id="Shape"></path>
                    <path d="M247.372846,144.555452 L247.372846,169.743485 L301.084186,169.743485 C308.012782,169.743485 313.671264,164.074459 313.671264,157.142529 L313.671264,144.555452 L247.372846,144.555452 Z M309.045362,149.181353 L309.045362,157.142529 C309.045362,161.52157 305.456037,165.117583 301.084186,165.117583 L251.998747,165.117583 L251.998747,149.181353 L309.045362,149.181353 Z" id="Shape"></path>
                    <path d="M301.084186,0.639035088 L198.282781,0.639035088 C191.351645,0.639035088 185.695703,6.2967326 185.695703,13.2399904 L185.695703,82.3602083 L226.55629,82.3602083 C238.036854,82.3602083 247.372846,91.6910439 247.372846,103.172138 L247.372846,169.743485 L301.084186,169.743485 C308.012782,169.743485 313.671264,164.074459 313.671264,157.142529 L313.671264,13.2399904 C313.671264,6.29529744 308.018513,0.639035088 301.084186,0.639035088 Z M251.998747,103.172138 C251.998747,89.1356569 240.591097,77.734307 226.55629,77.734307 L190.321604,77.734307 L190.321604,13.2399904 C190.321604,8.85122598 193.906781,5.26493644 198.282781,5.26493644 L301.084186,5.26493644 C305.463055,5.26493644 309.045362,8.84946943 309.045362,13.2399904 L309.045362,157.142529 C309.045362,161.52157 305.456037,165.117583 301.084186,165.117583 L251.998747,165.117583 L251.998747,103.172138 Z" id="Shape"></path>
                    <path d="M149.206593,298.241772 L149.206593,247.361483 L93.1637984,247.361483 L93.1637984,249.674434 C93.1637984,256.370846 92.3372591,263.047346 90.7349356,269.689536 L90.0461264,272.54489 L95.4906268,272.54489 C99.8706967,272.54489 103.456429,276.130623 103.456429,280.510693 L103.456429,298.241772 L149.206593,298.241772 Z M108.08233,293.615871 L108.08233,280.510693 C108.08233,273.703852 102.632475,268.128317 95.8734243,267.924747 C96.9790004,262.636116 97.6155469,257.320849 97.7586486,251.987385 L144.580692,251.987385 L144.580692,293.615871 L108.08233,293.615871 Z" id="Shape"></path>
                    <path d="M149.206593,224.218099 L0.659649123,224.218099 L0.659649123,226.53105 C0.659649123,240.580521 12.0617892,251.987385 26.0974806,251.987385 L149.206593,251.987385 L149.206593,224.218099 Z M144.580692,247.361483 L26.0974806,247.361483 C15.3977615,247.361483 6.56466475,239.252664 5.41275713,228.844 L144.580692,228.844 L144.580692,247.361483 Z" id="Shape"></path>
                    <path d="M149.206593,193.108912 C149.206593,188.733468 152.792325,185.147736 157.167769,185.147736 L251.998747,185.147736 L251.998747,103.176764 C251.998747,89.1402828 240.591097,77.7389329 226.55629,77.7389329 L26.0974806,77.7389329 C12.0634118,77.7389329 0.659649123,89.1395457 0.659649123,103.176764 L0.659649123,228.848626 L149.206593,228.848626 L149.206593,193.108912 Z M5.28555047,224.222725 L5.28555047,103.176764 C5.28555047,91.6946466 14.6179405,82.3648342 26.0974806,82.3648342 L226.55629,82.3648342 C238.036854,82.3648342 247.372846,91.6956698 247.372846,103.176764 L247.372846,180.521835 L157.167769,180.521835 C150.237511,180.521835 144.580692,186.178654 144.580692,193.108912 L144.580692,224.222725 L5.28555047,224.222725 Z" id="Shape"></path>
                </g>
            </g>
        </g>
    </g>
</svg>